<?xml version="1.0" encoding="UTF-8" standalone="no"?>
<!DOCTYPE svg PUBLIC "-//W3C//DTD SVG 1.1//EN"
 "http://www.w3.org/Graphics/SVG/1.1/DTD/svg11.dtd">
<!-- Generated by graphviz version 2.36.0 (20140111.2315)
 -->
<!-- Title: G Pages: 1 -->
<svg width="477pt" height="1539pt"
 viewBox="0.00 0.00 477.00 1539.00" xmlns="http://www.w3.org/2000/svg" xmlns:xlink="http://www.w3.org/1999/xlink">
<g id="graph0" class="graph" transform="scale(1 1) rotate(0) translate(4 1535)">
<title>G</title>
<polygon fill="white" stroke="none" points="-4,4 -4,-1535 473,-1535 473,4 -4,4"/>
<text text-anchor="middle" x="234.5" y="-1515.8" font-family="Times,serif" font-size="14.00">Backward Graph</text>
<!-- n1 -->
<g id="node1" class="node"><title>n1</title>
<ellipse fill="none" stroke="black" cx="236" cy="-1470" rx="123.055" ry="37.4533"/>
<text text-anchor="middle" x="236" y="-1481.3" font-family="Times,serif" font-size="14.00">Node1</text>
<text text-anchor="start" x="157" y="-1466.3" font-family="Times,serif" font-size="14.00">input = {Tensor[160]}</text>
<text text-anchor="middle" x="236" y="-1451.3" font-family="Times,serif" font-size="14.00">gradOutput = {Tensor[160]}</text>
</g>
<!-- n2 -->
<g id="node2" class="node"><title>n2</title>
<ellipse fill="yellow" stroke="green" cx="236" cy="-1348" rx="123.055" ry="48.1667"/>
<text text-anchor="middle" x="236" y="-1366.8" font-family="Times,serif" font-size="14.00">L3 (2)</text>
<text text-anchor="start" x="157" y="-1351.8" font-family="Times,serif" font-size="14.00">input = {Tensor[160]}</text>
<text text-anchor="start" x="157" y="-1336.8" font-family="Times,serif" font-size="14.00">gradOutput = {Tensor[160]}</text>
<text text-anchor="middle" x="236" y="-1321.8" font-family="Times,serif" font-size="14.00">module = nn.Tanh</text>
</g>
<!-- n1&#45;&gt;n2 -->
<g id="edge1" class="edge"><title>n1&#45;&gt;n2</title>
<path fill="none" stroke="black" d="M236,-1432.34C236,-1424.22 236,-1415.42 236,-1406.68"/>
<polygon fill="black" stroke="black" points="239.5,-1406.5 236,-1396.5 232.5,-1406.5 239.5,-1406.5"/>
</g>
<!-- n3 -->
<g id="node3" class="node"><title>n3</title>
<ellipse fill="none" stroke="black" cx="236" cy="-1216" rx="123.055" ry="48.1667"/>
<text text-anchor="middle" x="236" y="-1234.8" font-family="Times,serif" font-size="14.00">Node3</text>
<text text-anchor="start" x="157" y="-1219.8" font-family="Times,serif" font-size="14.00">input = {Tensor[80]}</text>
<text text-anchor="start" x="157" y="-1204.8" font-family="Times,serif" font-size="14.00">gradOutput = {Tensor[160]}</text>
<text text-anchor="middle" x="236" y="-1189.8" font-family="Times,serif" font-size="14.00">module = nn.Linear</text>
</g>
<!-- n2&#45;&gt;n3 -->
<g id="edge2" class="edge"><title>n2&#45;&gt;n3</title>
<path fill="none" stroke="black" d="M236,-1299.7C236,-1291.54 236,-1282.99 236,-1274.6"/>
<polygon fill="black" stroke="black" points="239.5,-1274.48 236,-1264.48 232.5,-1274.48 239.5,-1274.48"/>
</g>
<!-- n4 -->
<g id="node4" class="node"><title>n4</title>
<ellipse fill="none" stroke="black" cx="236" cy="-1073" rx="138.951" ry="58.8803"/>
<text text-anchor="middle" x="236" y="-1099.3" font-family="Times,serif" font-size="14.00">Node4</text>
<text text-anchor="start" x="145.5" y="-1084.3" font-family="Times,serif" font-size="14.00">input = {Tensor[20],Tensor[60]}</text>
<text text-anchor="start" x="145.5" y="-1069.3" font-family="Times,serif" font-size="14.00">mapindex = {Node5,Node6}</text>
<text text-anchor="start" x="145.5" y="-1054.3" font-family="Times,serif" font-size="14.00">gradOutput = {Tensor[80]}</text>
<text text-anchor="middle" x="236" y="-1039.3" font-family="Times,serif" font-size="14.00">module = nn.JoinTable</text>
</g>
<!-- n3&#45;&gt;n4 -->
<g id="edge3" class="edge"><title>n3&#45;&gt;n4</title>
<path fill="none" stroke="black" d="M236,-1167.66C236,-1159.38 236,-1150.62 236,-1141.91"/>
<polygon fill="black" stroke="black" points="239.5,-1141.74 236,-1131.74 232.5,-1141.74 239.5,-1141.74"/>
</g>
<!-- n5 -->
<g id="node5" class="node"><title>n5</title>
<ellipse fill="none" stroke="red" cx="163" cy="-468" rx="163.013" ry="69.0935"/>
<text text-anchor="middle" x="163" y="-501.8" font-family="Times,serif" font-size="14.00">L1 (5)</text>
<text text-anchor="middle" x="163" y="-486.8" font-family="Times,serif" font-size="14.00">desc = Level 1 Node</text>
<text text-anchor="start" x="55.5" y="-471.8" font-family="Times,serif" font-size="14.00">input = {Tensor[20]}</text>
<text text-anchor="start" x="55.5" y="-456.8" font-family="Times,serif" font-size="14.00">gradOutputBuffer = Tensor[20]</text>
<text text-anchor="start" x="55.5" y="-441.8" font-family="Times,serif" font-size="14.00">gradOutput = {Tensor[20],Tensor[20]}</text>
<text text-anchor="middle" x="163" y="-426.8" font-family="Times,serif" font-size="14.00">module = nn.Tanh</text>
</g>
<!-- n4&#45;&gt;n5 -->
<g id="edge4" class="edge"><title>n4&#45;&gt;n5</title>
<path fill="none" stroke="black" d="M198.203,-1016.31C191.643,-1004.16 185.737,-991.025 182,-978 139.683,-830.489 146.007,-649.067 154.472,-547.496"/>
<polygon fill="black" stroke="black" points="157.978,-547.583 155.35,-537.319 151.004,-546.981 157.978,-547.583"/>
</g>
<!-- n6 -->
<g id="node6" class="node"><title>n6</title>
<ellipse fill="none" stroke="blue" cx="309" cy="-919" rx="118.13" ry="58.8803"/>
<text text-anchor="middle" x="309" y="-945.3" font-family="Times,serif" font-size="14.00" fill="green">L2 (6)</text>
<text text-anchor="middle" x="309" y="-930.3" font-family="Times,serif" font-size="14.00" fill="green">desc = Level 2 Node</text>
<text text-anchor="start" x="233.5" y="-915.3" font-family="Times,serif" font-size="14.00" fill="green">input = {Tensor[60]}</text>
<text text-anchor="start" x="233.5" y="-900.3" font-family="Times,serif" font-size="14.00" fill="green">gradOutput = {Tensor[60]}</text>
<text text-anchor="middle" x="309" y="-885.3" font-family="Times,serif" font-size="14.00" fill="green">module = nn.Tanh</text>
</g>
<!-- n4&#45;&gt;n6 -->
<g id="edge5" class="edge"><title>n4&#45;&gt;n6</title>
<path fill="none" stroke="black" d="M263.183,-1015.4C267.9,-1005.58 272.84,-995.292 277.658,-985.261"/>
<polygon fill="black" stroke="black" points="280.864,-986.67 282.038,-976.14 274.554,-983.639 280.864,-986.67"/>
</g>
<!-- n7 -->
<g id="node7" class="node"><title>n7</title>
<ellipse fill="none" stroke="black" cx="186" cy="-314" rx="118.13" ry="48.1667"/>
<text text-anchor="middle" x="186" y="-332.8" font-family="Times,serif" font-size="14.00">Node7</text>
<text text-anchor="start" x="110.5" y="-317.8" font-family="Times,serif" font-size="14.00">input = {Tensor[10]}</text>
<text text-anchor="start" x="110.5" y="-302.8" font-family="Times,serif" font-size="14.00">gradOutput = {Tensor[20]}</text>
<text text-anchor="middle" x="186" y="-287.8" font-family="Times,serif" font-size="14.00">module = nn.Linear</text>
</g>
<!-- n5&#45;&gt;n7 -->
<g id="edge6" class="edge"><title>n5&#45;&gt;n7</title>
<path fill="none" stroke="black" d="M173.356,-398.559C174.693,-389.724 176.051,-380.751 177.356,-372.125"/>
<polygon fill="black" stroke="black" points="180.824,-372.597 178.86,-362.186 173.903,-371.55 180.824,-372.597"/>
</g>
<!-- n8 -->
<g id="node8" class="node"><title>n8</title>
<ellipse fill="none" stroke="black" cx="319" cy="-776" rx="118.13" ry="48.1667"/>
<text text-anchor="middle" x="319" y="-794.8" font-family="Times,serif" font-size="14.00">Node8</text>
<text text-anchor="start" x="243.5" y="-779.8" font-family="Times,serif" font-size="14.00">input = {Tensor[30]}</text>
<text text-anchor="start" x="243.5" y="-764.8" font-family="Times,serif" font-size="14.00">gradOutput = {Tensor[60]}</text>
<text text-anchor="middle" x="319" y="-749.8" font-family="Times,serif" font-size="14.00">module = nn.Linear</text>
</g>
<!-- n6&#45;&gt;n8 -->
<g id="edge7" class="edge"><title>n6&#45;&gt;n8</title>
<path fill="none" stroke="black" d="M313.096,-860.243C313.702,-851.7 314.326,-842.899 314.932,-834.364"/>
<polygon fill="black" stroke="black" points="318.442,-834.344 315.658,-824.121 311.459,-833.848 318.442,-834.344"/>
</g>
<!-- n9 -->
<g id="node9" class="node"><title>n9</title>
<ellipse fill="none" stroke="black" cx="270" cy="-171" rx="163.013" ry="58.8803"/>
<text text-anchor="middle" x="270" y="-197.3" font-family="Times,serif" font-size="14.00">Node9</text>
<text text-anchor="start" x="162.5" y="-182.3" font-family="Times,serif" font-size="14.00">input = {Tensor[10]}</text>
<text text-anchor="start" x="162.5" y="-167.3" font-family="Times,serif" font-size="14.00">gradOutputBuffer = Tensor[10]</text>
<text text-anchor="start" x="162.5" y="-152.3" font-family="Times,serif" font-size="14.00">gradOutput = {Tensor[10],Tensor[10]}</text>
<text text-anchor="middle" x="270" y="-137.3" font-family="Times,serif" font-size="14.00">module = nn.Identity</text>
</g>
<!-- n7&#45;&gt;n9 -->
<g id="edge8" class="edge"><title>n7&#45;&gt;n9</title>
<path fill="none" stroke="black" d="M213.505,-266.831C219.13,-257.389 225.15,-247.283 231.088,-237.317"/>
<polygon fill="black" stroke="black" points="234.161,-238.996 236.273,-228.614 228.148,-235.413 234.161,-238.996"/>
</g>
<!-- n10 -->
<g id="node10" class="node"><title>n10</title>
<ellipse fill="none" stroke="black" cx="330" cy="-633" rx="138.951" ry="58.8803"/>
<text text-anchor="middle" x="330" y="-659.3" font-family="Times,serif" font-size="14.00">Node10</text>
<text text-anchor="start" x="239.5" y="-644.3" font-family="Times,serif" font-size="14.00">input = {Tensor[10],Tensor[20]}</text>
<text text-anchor="start" x="239.5" y="-629.3" font-family="Times,serif" font-size="14.00">mapindex = {Node9,Node5}</text>
<text text-anchor="start" x="239.5" y="-614.3" font-family="Times,serif" font-size="14.00">gradOutput = {Tensor[30]}</text>
<text text-anchor="middle" x="330" y="-599.3" font-family="Times,serif" font-size="14.00">module = nn.JoinTable</text>
</g>
<!-- n8&#45;&gt;n10 -->
<g id="edge9" class="edge"><title>n8&#45;&gt;n10</title>
<path fill="none" stroke="black" d="M322.693,-727.657C323.339,-719.376 324.023,-710.617 324.702,-701.909"/>
<polygon fill="black" stroke="black" points="328.207,-701.986 325.495,-691.744 321.228,-701.442 328.207,-701.986"/>
</g>
<!-- n11 -->
<g id="node11" class="node"><title>n11</title>
<ellipse fill="none" stroke="black" cx="270" cy="-38" rx="118.13" ry="37.4533"/>
<text text-anchor="middle" x="270" y="-49.3" font-family="Times,serif" font-size="14.00">Node11</text>
<text text-anchor="start" x="194.5" y="-34.3" font-family="Times,serif" font-size="14.00">input = {Tensor[10]}</text>
<text text-anchor="middle" x="270" y="-19.3" font-family="Times,serif" font-size="14.00">gradOutput = {Tensor[10]}</text>
</g>
<!-- n9&#45;&gt;n11 -->
<g id="edge10" class="edge"><title>n9&#45;&gt;n11</title>
<path fill="none" stroke="black" d="M270,-112.16C270,-103.389 270,-94.4321 270,-85.9302"/>
<polygon fill="black" stroke="black" points="273.5,-85.8285 270,-75.8285 266.5,-85.8285 273.5,-85.8285"/>
</g>
<!-- n10&#45;&gt;n5 -->
<g id="edge12" class="edge"><title>n10&#45;&gt;n5</title>
<path fill="none" stroke="black" d="M275.318,-578.628C262.396,-566.015 248.424,-552.378 234.869,-539.148"/>
<polygon fill="black" stroke="black" points="236.992,-536.329 227.391,-531.849 232.103,-541.338 236.992,-536.329"/>
</g>
<!-- n10&#45;&gt;n9 -->
<g id="edge11" class="edge"><title>n10&#45;&gt;n9</title>
<path fill="none" stroke="black" d="M336.006,-574.074C341.673,-500.625 345.121,-370.921 313,-266 310.212,-256.894 306.732,-247.524 302.967,-238.391"/>
<polygon fill="black" stroke="black" points="306.097,-236.808 298.958,-228.98 299.658,-239.551 306.097,-236.808"/>
</g>
</g>
</svg>
