<?xml version="1.0" encoding="UTF-8" standalone="no"?>
<!DOCTYPE svg PUBLIC "-//W3C//DTD SVG 1.1//EN"
 "http://www.w3.org/Graphics/SVG/1.1/DTD/svg11.dtd">
<!-- Generated by graphviz version 2.36.0 (20140111.2315)
 -->
<!-- Title: G Pages: 1 -->
<svg width="477pt" height="1539pt"
 viewBox="0.00 0.00 477.00 1539.00" xmlns="http://www.w3.org/2000/svg" xmlns:xlink="http://www.w3.org/1999/xlink">
<g id="graph0" class="graph" transform="scale(1 1) rotate(0) translate(4 1535)">
<title>G</title>
<polygon fill="white" stroke="none" points="-4,4 -4,-1535 473,-1535 473,4 -4,4"/>
<text text-anchor="middle" x="234.5" y="-1515.8" font-family="Times,serif" font-size="14.00">Forward Graph</text>
<!-- n1 -->
<g id="node1" class="node"><title>n1</title>
<ellipse fill="yellow" stroke="green" cx="238" cy="-160" rx="123.055" ry="48.1667"/>
<text text-anchor="middle" x="238" y="-178.8" font-family="Times,serif" font-size="14.00">L3 (1)</text>
<text text-anchor="start" x="159" y="-163.8" font-family="Times,serif" font-size="14.00">input = {Tensor[160]}</text>
<text text-anchor="start" x="159" y="-148.8" font-family="Times,serif" font-size="14.00">gradOutput = {Tensor[160]}</text>
<text text-anchor="middle" x="238" y="-133.8" font-family="Times,serif" font-size="14.00">module = nn.Tanh</text>
</g>
<!-- n2 -->
<g id="node2" class="node"><title>n2</title>
<ellipse fill="none" stroke="black" cx="238" cy="-38" rx="123.055" ry="37.4533"/>
<text text-anchor="middle" x="238" y="-49.3" font-family="Times,serif" font-size="14.00">Node2</text>
<text text-anchor="start" x="159" y="-34.3" font-family="Times,serif" font-size="14.00">input = {Tensor[160]}</text>
<text text-anchor="middle" x="238" y="-19.3" font-family="Times,serif" font-size="14.00">gradOutput = {Tensor[160]}</text>
</g>
<!-- n1&#45;&gt;n2 -->
<g id="edge1" class="edge"><title>n1&#45;&gt;n2</title>
<path fill="none" stroke="black" d="M238,-111.573C238,-103.096 238,-94.269 238,-85.8099"/>
<polygon fill="black" stroke="black" points="241.5,-85.7224 238,-75.7224 234.5,-85.7224 241.5,-85.7224"/>
</g>
<!-- n3 -->
<g id="node3" class="node"><title>n3</title>
<ellipse fill="none" stroke="black" cx="238" cy="-292" rx="123.055" ry="48.1667"/>
<text text-anchor="middle" x="238" y="-310.8" font-family="Times,serif" font-size="14.00">Node3</text>
<text text-anchor="start" x="159" y="-295.8" font-family="Times,serif" font-size="14.00">input = {Tensor[80]}</text>
<text text-anchor="start" x="159" y="-280.8" font-family="Times,serif" font-size="14.00">gradOutput = {Tensor[160]}</text>
<text text-anchor="middle" x="238" y="-265.8" font-family="Times,serif" font-size="14.00">module = nn.Linear</text>
</g>
<!-- n3&#45;&gt;n1 -->
<g id="edge2" class="edge"><title>n3&#45;&gt;n1</title>
<path fill="none" stroke="black" d="M238,-243.699C238,-235.544 238,-226.987 238,-218.597"/>
<polygon fill="black" stroke="black" points="241.5,-218.483 238,-208.483 234.5,-218.483 241.5,-218.483"/>
</g>
<!-- n4 -->
<g id="node4" class="node"><title>n4</title>
<ellipse fill="none" stroke="black" cx="238" cy="-435" rx="138.951" ry="58.8803"/>
<text text-anchor="middle" x="238" y="-461.3" font-family="Times,serif" font-size="14.00">Node4</text>
<text text-anchor="start" x="147.5" y="-446.3" font-family="Times,serif" font-size="14.00">input = {Tensor[20],Tensor[60]}</text>
<text text-anchor="start" x="147.5" y="-431.3" font-family="Times,serif" font-size="14.00">mapindex = {Node5,Node6}</text>
<text text-anchor="start" x="147.5" y="-416.3" font-family="Times,serif" font-size="14.00">gradOutput = {Tensor[80]}</text>
<text text-anchor="middle" x="238" y="-401.3" font-family="Times,serif" font-size="14.00">module = nn.JoinTable</text>
</g>
<!-- n4&#45;&gt;n3 -->
<g id="edge3" class="edge"><title>n4&#45;&gt;n3</title>
<path fill="none" stroke="black" d="M238,-376.243C238,-367.7 238,-358.899 238,-350.364"/>
<polygon fill="black" stroke="black" points="241.5,-350.121 238,-340.121 234.5,-350.121 241.5,-350.121"/>
</g>
<!-- n5 -->
<g id="node5" class="node"><title>n5</title>
<ellipse fill="none" stroke="red" cx="163" cy="-1040" rx="163.013" ry="69.0935"/>
<text text-anchor="middle" x="163" y="-1073.8" font-family="Times,serif" font-size="14.00">L1 (5)</text>
<text text-anchor="middle" x="163" y="-1058.8" font-family="Times,serif" font-size="14.00">desc = Level 1 Node</text>
<text text-anchor="start" x="55.5" y="-1043.8" font-family="Times,serif" font-size="14.00">input = {Tensor[20]}</text>
<text text-anchor="start" x="55.5" y="-1028.8" font-family="Times,serif" font-size="14.00">gradOutputBuffer = Tensor[20]</text>
<text text-anchor="start" x="55.5" y="-1013.8" font-family="Times,serif" font-size="14.00">gradOutput = {Tensor[20],Tensor[20]}</text>
<text text-anchor="middle" x="163" y="-998.8" font-family="Times,serif" font-size="14.00">module = nn.Tanh</text>
</g>
<!-- n5&#45;&gt;n4 -->
<g id="edge4" class="edge"><title>n5&#45;&gt;n4</title>
<path fill="none" stroke="black" d="M156.686,-970.368C149.678,-871.134 144.38,-682.741 187,-530 189.695,-520.343 193.522,-510.577 197.884,-501.179"/>
<polygon fill="black" stroke="black" points="201.161,-502.442 202.402,-491.92 194.871,-499.373 201.161,-502.442"/>
</g>
<!-- n10 -->
<g id="node10" class="node"><title>n10</title>
<ellipse fill="none" stroke="black" cx="330" cy="-875" rx="138.951" ry="58.8803"/>
<text text-anchor="middle" x="330" y="-901.3" font-family="Times,serif" font-size="14.00">Node10</text>
<text text-anchor="start" x="239.5" y="-886.3" font-family="Times,serif" font-size="14.00">input = {Tensor[10],Tensor[20]}</text>
<text text-anchor="start" x="239.5" y="-871.3" font-family="Times,serif" font-size="14.00">mapindex = {Node9,Node5}</text>
<text text-anchor="start" x="239.5" y="-856.3" font-family="Times,serif" font-size="14.00">gradOutput = {Tensor[30]}</text>
<text text-anchor="middle" x="330" y="-841.3" font-family="Times,serif" font-size="14.00">module = nn.JoinTable</text>
</g>
<!-- n5&#45;&gt;n10 -->
<g id="edge12" class="edge"><title>n5&#45;&gt;n10</title>
<path fill="none" stroke="black" d="M227.567,-975.98C240.964,-962.903 255.048,-949.156 268.339,-936.184"/>
<polygon fill="black" stroke="black" points="270.92,-938.556 275.631,-929.067 266.03,-933.547 270.92,-938.556"/>
</g>
<!-- n6 -->
<g id="node6" class="node"><title>n6</title>
<ellipse fill="none" stroke="blue" cx="314" cy="-589" rx="118.13" ry="58.8803"/>
<text text-anchor="middle" x="314" y="-615.3" font-family="Times,serif" font-size="14.00" fill="green">L2 (6)</text>
<text text-anchor="middle" x="314" y="-600.3" font-family="Times,serif" font-size="14.00" fill="green">desc = Level 2 Node</text>
<text text-anchor="start" x="238.5" y="-585.3" font-family="Times,serif" font-size="14.00" fill="green">input = {Tensor[60]}</text>
<text text-anchor="start" x="238.5" y="-570.3" font-family="Times,serif" font-size="14.00" fill="green">gradOutput = {Tensor[60]}</text>
<text text-anchor="middle" x="314" y="-555.3" font-family="Times,serif" font-size="14.00" fill="green">module = nn.Tanh</text>
</g>
<!-- n6&#45;&gt;n4 -->
<g id="edge5" class="edge"><title>n6&#45;&gt;n4</title>
<path fill="none" stroke="black" d="M285.916,-531.833C281.028,-522.056 275.904,-511.808 270.9,-501.801"/>
<polygon fill="black" stroke="black" points="273.952,-500.077 266.349,-492.698 267.691,-503.208 273.952,-500.077"/>
</g>
<!-- n7 -->
<g id="node7" class="node"><title>n7</title>
<ellipse fill="none" stroke="black" cx="185" cy="-1194" rx="118.13" ry="48.1667"/>
<text text-anchor="middle" x="185" y="-1212.8" font-family="Times,serif" font-size="14.00">Node7</text>
<text text-anchor="start" x="109.5" y="-1197.8" font-family="Times,serif" font-size="14.00">input = {Tensor[10]}</text>
<text text-anchor="start" x="109.5" y="-1182.8" font-family="Times,serif" font-size="14.00">gradOutput = {Tensor[20]}</text>
<text text-anchor="middle" x="185" y="-1167.8" font-family="Times,serif" font-size="14.00">module = nn.Linear</text>
</g>
<!-- n7&#45;&gt;n5 -->
<g id="edge6" class="edge"><title>n7&#45;&gt;n5</title>
<path fill="none" stroke="black" d="M178.16,-1145.74C176.95,-1137.38 175.662,-1128.48 174.366,-1119.53"/>
<polygon fill="black" stroke="black" points="177.801,-1118.83 172.905,-1109.43 170.874,-1119.83 177.801,-1118.83"/>
</g>
<!-- n8 -->
<g id="node8" class="node"><title>n8</title>
<ellipse fill="none" stroke="black" cx="324" cy="-732" rx="118.13" ry="48.1667"/>
<text text-anchor="middle" x="324" y="-750.8" font-family="Times,serif" font-size="14.00">Node8</text>
<text text-anchor="start" x="248.5" y="-735.8" font-family="Times,serif" font-size="14.00">input = {Tensor[30]}</text>
<text text-anchor="start" x="248.5" y="-720.8" font-family="Times,serif" font-size="14.00">gradOutput = {Tensor[60]}</text>
<text text-anchor="middle" x="324" y="-705.8" font-family="Times,serif" font-size="14.00">module = nn.Linear</text>
</g>
<!-- n8&#45;&gt;n6 -->
<g id="edge7" class="edge"><title>n8&#45;&gt;n6</title>
<path fill="none" stroke="black" d="M320.642,-683.657C320.055,-675.376 319.434,-666.617 318.816,-657.909"/>
<polygon fill="black" stroke="black" points="322.294,-657.472 318.095,-647.744 315.312,-657.967 322.294,-657.472"/>
</g>
<!-- n9 -->
<g id="node9" class="node"><title>n9</title>
<ellipse fill="none" stroke="black" cx="280" cy="-1337" rx="163.013" ry="58.8803"/>
<text text-anchor="middle" x="280" y="-1363.3" font-family="Times,serif" font-size="14.00">Node9</text>
<text text-anchor="start" x="172.5" y="-1348.3" font-family="Times,serif" font-size="14.00">input = {Tensor[10]}</text>
<text text-anchor="start" x="172.5" y="-1333.3" font-family="Times,serif" font-size="14.00">gradOutputBuffer = Tensor[10]</text>
<text text-anchor="start" x="172.5" y="-1318.3" font-family="Times,serif" font-size="14.00">gradOutput = {Tensor[10],Tensor[10]}</text>
<text text-anchor="middle" x="280" y="-1303.3" font-family="Times,serif" font-size="14.00">module = nn.Identity</text>
</g>
<!-- n9&#45;&gt;n7 -->
<g id="edge8" class="edge"><title>n9&#45;&gt;n7</title>
<path fill="none" stroke="black" d="M242.181,-1279.87C235.308,-1269.67 228.154,-1259.05 221.326,-1248.92"/>
<polygon fill="black" stroke="black" points="224.171,-1246.87 215.681,-1240.54 218.366,-1250.79 224.171,-1246.87"/>
</g>
<!-- n9&#45;&gt;n10 -->
<g id="edge11" class="edge"><title>n9&#45;&gt;n10</title>
<path fill="none" stroke="black" d="M301.065,-1278.76C305.049,-1266.72 308.925,-1254.03 312,-1242 342.052,-1124.46 338.223,-1091.28 335,-970 334.777,-961.604 334.442,-952.792 334.049,-944.067"/>
<polygon fill="black" stroke="black" points="337.536,-943.719 333.564,-933.897 330.544,-944.052 337.536,-943.719"/>
</g>
<!-- n10&#45;&gt;n8 -->
<g id="edge9" class="edge"><title>n10&#45;&gt;n8</title>
<path fill="none" stroke="black" d="M327.542,-816.243C327.179,-807.7 326.804,-798.899 326.441,-790.364"/>
<polygon fill="black" stroke="black" points="329.927,-789.963 326.005,-780.121 322.934,-790.261 329.927,-789.963"/>
</g>
<!-- n11 -->
<g id="node11" class="node"><title>n11</title>
<ellipse fill="none" stroke="black" cx="280" cy="-1470" rx="118.13" ry="37.4533"/>
<text text-anchor="middle" x="280" y="-1481.3" font-family="Times,serif" font-size="14.00">Node11</text>
<text text-anchor="start" x="204.5" y="-1466.3" font-family="Times,serif" font-size="14.00">input = {Tensor[10]}</text>
<text text-anchor="middle" x="280" y="-1451.3" font-family="Times,serif" font-size="14.00">gradOutput = {Tensor[10]}</text>
</g>
<!-- n11&#45;&gt;n9 -->
<g id="edge10" class="edge"><title>n11&#45;&gt;n9</title>
<path fill="none" stroke="black" d="M280,-1432.51C280,-1424.26 280,-1415.24 280,-1406.15"/>
<polygon fill="black" stroke="black" points="283.5,-1405.9 280,-1395.9 276.5,-1405.9 283.5,-1405.9"/>
</g>
</g>
</svg>
