<?xml version="1.0" encoding="UTF-8" standalone="no"?>
<!DOCTYPE svg PUBLIC "-//W3C//DTD SVG 1.1//EN"
 "http://www.w3.org/Graphics/SVG/1.1/DTD/svg11.dtd">
<!-- Generated by graphviz version 2.28.0 (20121122.1233)
 -->
<!-- Title: G Pages: 1 -->
<svg width="246pt" height="524pt"
 viewBox="0.00 0.00 246.00 524.00" xmlns="http://www.w3.org/2000/svg" xmlns:xlink="http://www.w3.org/1999/xlink">
<g id="graph1" class="graph" transform="scale(1 1) rotate(0) translate(4 520)">
<title>G</title>
<polygon fill="white" stroke="white" points="-4,5 -4,-520 243,-520 243,5 -4,5"/>
<!-- n1 -->
<g id="node1" class="node"><title>n1</title>
<ellipse fill="none" stroke="black" cx="119" cy="-486" rx="119.594" ry="29.3315"/>
<text text-anchor="start" x="42.3384" y="-488.8" font-family="Times,serif" font-size="14.00">data = {Tensor[20]}</text>
<text text-anchor="middle" x="119" y="-472" font-family="Times,serif" font-size="14.00">gradOutput = {Tensor[20]}</text>
</g>
<!-- n2 -->
<g id="node2" class="node"><title>n2</title>
<ellipse fill="none" stroke="black" cx="119" cy="-378" rx="119.594" ry="41.0911"/>
<text text-anchor="start" x="42.3384" y="-389.2" font-family="Times,serif" font-size="14.00">input = {Tensor[20]}</text>
<text text-anchor="start" x="42.3384" y="-372.4" font-family="Times,serif" font-size="14.00">gradOutput = {Tensor[10]}</text>
<text text-anchor="middle" x="119" y="-355.6" font-family="Times,serif" font-size="14.00">module = nn.Linear</text>
</g>
<!-- n1&#45;&gt;n2 -->
<g id="edge2" class="edge"><title>n1&#45;&gt;n2</title>
<path fill="none" stroke="black" d="M119,-456.315C119,-448.118 119,-438.931 119,-429.829"/>
<polygon fill="black" stroke="black" points="122.5,-429.646 119,-419.646 115.5,-429.646 122.5,-429.646"/>
</g>
<!-- n3 -->
<g id="node3" class="node"><title>n3</title>
<ellipse fill="none" stroke="black" cx="119" cy="-258" rx="119.594" ry="41.0911"/>
<text text-anchor="start" x="42.3384" y="-269.2" font-family="Times,serif" font-size="14.00">input = {Tensor[10]}</text>
<text text-anchor="start" x="42.3384" y="-252.4" font-family="Times,serif" font-size="14.00">gradOutput = {Tensor[10]}</text>
<text text-anchor="middle" x="119" y="-235.6" font-family="Times,serif" font-size="14.00">module = nn.Tanh</text>
</g>
<!-- n2&#45;&gt;n3 -->
<g id="edge4" class="edge"><title>n2&#45;&gt;n3</title>
<path fill="none" stroke="black" d="M119,-336.391C119,-327.862 119,-318.763 119,-309.912"/>
<polygon fill="black" stroke="black" points="122.5,-309.684 119,-299.684 115.5,-309.684 122.5,-309.684"/>
</g>
<!-- n4 -->
<g id="node4" class="node"><title>n4</title>
<ellipse fill="none" stroke="black" cx="119" cy="-138" rx="114.171" ry="41.0911"/>
<text text-anchor="start" x="45.8384" y="-149.2" font-family="Times,serif" font-size="14.00">input = {Tensor[10]}</text>
<text text-anchor="start" x="45.8384" y="-132.4" font-family="Times,serif" font-size="14.00">gradOutput = {Tensor[1]}</text>
<text text-anchor="middle" x="119" y="-115.6" font-family="Times,serif" font-size="14.00">module = nn.Linear</text>
</g>
<!-- n3&#45;&gt;n4 -->
<g id="edge6" class="edge"><title>n3&#45;&gt;n4</title>
<path fill="none" stroke="black" d="M119,-216.391C119,-207.862 119,-198.763 119,-189.912"/>
<polygon fill="black" stroke="black" points="122.5,-189.684 119,-179.684 115.5,-189.684 122.5,-189.684"/>
</g>
<!-- n5 -->
<g id="node5" class="node"><title>n5</title>
<ellipse fill="none" stroke="black" cx="119" cy="-30" rx="90.0612" ry="29.3315"/>
<text text-anchor="start" x="63.3315" y="-32.8" font-family="Times,serif" font-size="14.00">input = {Tensor[1]}</text>
<text text-anchor="middle" x="119" y="-16" font-family="Times,serif" font-size="14.00">data = {Tensor[1]}</text>
</g>
<!-- n4&#45;&gt;n5 -->
<g id="edge8" class="edge"><title>n4&#45;&gt;n5</title>
<path fill="none" stroke="black" d="M119,-96.6236C119,-87.8887 119,-78.668 119,-69.9877"/>
<polygon fill="black" stroke="black" points="122.5,-69.7364 119,-59.7364 115.5,-69.7365 122.5,-69.7364"/>
</g>
</g>
</svg>
